<?xml version="1.0" standalone="no"?>
<!DOCTYPE svg PUBLIC "-//W3C//DTD SVG 20010904//EN"
 "http://www.w3.org/TR/2001/REC-SVG-20010904/DTD/svg10.dtd">
<svg version="1.0" xmlns="http://www.w3.org/2000/svg"
 width="300.000000pt" height="277.000000pt" viewBox="0 0 300.000000 277.000000"
 preserveAspectRatio="xMidYMid meet">
<metadata>
Created by potrace 1.10, written by Peter Selinger 2001-2011
</metadata>
<g transform="translate(0.000000,277.000000) scale(0.050000,-0.050000)"
fill="#000000" stroke="none">
<path d="M2981 5306 c-45 -179 -257 -306 -508 -306 -183 0 -393 -79 -393 -147
0 -11 18 -1 41 23 41 45 79 58 79 27 0 -9 -18 -33 -40 -53 -21 -19 -34 -43
-28 -53 21 -33 -14 -60 -45 -34 -40 32 -72 -13 -59 -83 9 -50 8 -50 -154 -55
-90 -3 -222 -8 -292 -10 -81 -3 -131 3 -136 17 -5 16 -29 15 -82 -4 -41 -14
-95 -27 -120 -27 -54 -1 -124 -35 -124 -59 0 -9 74 -22 165 -28 149 -11 373
-65 407 -99 24 -24 -43 -73 -74 -53 -15 9 -52 18 -81 18 -81 0 -118 20 -138
74 -20 52 -82 39 -106 -23 -6 -17 -32 -31 -57 -32 -84 -1 5 -31 164 -56 83
-14 200 -33 261 -44 61 -10 131 -19 155 -19 24 0 86 -31 139 -69 197 -144 190
-135 166 -197 -13 -35 -13 -52 -1 -44 35 22 21 -23 -19 -59 -21 -19 -47 -30
-57 -23 -36 22 -66 -38 -38 -76 23 -32 30 -30 80 27 30 33 63 61 73 61 42 0
42 -46 0 -91 -38 -41 -40 -49 -12 -49 18 0 33 -9 33 -20 0 -128 156 131 172
286 18 182 180 205 246 34 18 -47 19 -46 20 21 2 70 -43 159 -80 159 -11 0
-14 -11 -6 -23 10 -16 3 -20 -20 -10 -20 7 -46 14 -59 14 -12 1 -5 10 17 19
31 13 22 17 -42 19 -87 1 -108 34 -108 169 0 32 -19 51 -72 70 -49 18 -78 44
-92 84 -11 32 -28 58 -38 58 -10 0 -18 14 -18 30 0 17 8 30 18 30 10 0 33 34
51 75 68 151 77 161 153 173 108 17 238 -49 238 -121 0 -38 -10 -34 -77 33
-61 61 -111 76 -133 40 -7 -11 5 -20 26 -20 73 0 149 -79 136 -143 -13 -67 7
-73 59 -16 41 46 47 163 10 208 -18 22 -15 30 13 37 244 66 296 88 366 156
111 108 156 278 73 278 -17 0 -38 -37 -52 -94z m-1133 -738 c30 -11 46 -68 21
-68 -32 0 -89 44 -78 61 13 22 16 23 57 7z m-113 -48 c14 -21 61 -57 105 -80
44 -22 80 -45 80 -50 0 -50 -278 95 -279 145 -1 40 67 29 94 -15z m265 -63 c0
-13 15 -40 33 -60 49 -54 -8 -49 -67 6 -57 54 -58 77 -6 77 22 0 40 -11 40
-23z"/>
<path d="M3410 5026 c-273 -38 -476 -286 -419 -514 21 -84 49 -39 49 80 0 124
57 258 118 277 21 7 42 29 47 49 20 76 296 96 348 24 34 -45 16 -61 -58 -50
-43 7 -83 -3 -120 -28 l-56 -37 112 9 c93 8 122 2 172 -35 71 -52 69 -53 87
44 13 67 8 81 -50 135 -64 60 -91 65 -230 46z"/>
<path d="M3217 4794 c-82 -71 -129 -203 -101 -282 28 -77 31 -114 5 -73 -14
23 -21 17 -32 -27 -16 -65 20 -145 80 -176 23 -12 74 -47 114 -79 73 -57 109
-73 88 -39 -6 10 0 22 14 27 31 10 -16 75 -54 75 -158 0 -236 437 -99 556 29
25 49 50 45 54 -5 5 -31 -12 -60 -36z"/>
<path d="M3841 4821 c-39 -10 -73 -27 -77 -38 -3 -11 -32 -56 -64 -99 -87
-121 -96 -309 -10 -216 59 63 61 72 18 72 -23 0 -16 19 30 78 34 43 62 89 62
102 0 13 13 19 29 13 17 -6 55 -3 85 6 127 40 166 43 166 11 0 -16 -14 -30
-30 -30 -17 0 -46 -8 -65 -18 -19 -10 -59 -27 -89 -39 -73 -29 -176 -209 -176
-308 0 -83 -32 -99 -59 -30 -17 43 -19 43 -20 4 -1 -52 82 -167 143 -197 25
-13 46 -36 46 -52 0 -41 -61 -48 -110 -14 -35 24 -53 25 -116 2 -41 -14 -135
-27 -209 -27 -74 -1 -135 -9 -135 -19 0 -26 287 -39 305 -13 10 14 14 13 15
-4 0 -14 23 -25 51 -25 43 0 47 -6 31 -37 -24 -44 313 -79 408 -43 28 10 77
14 110 7 37 -7 77 -1 105 17 42 28 251 61 380 62 30 0 55 7 55 17 0 9 18 17
40 17 22 0 40 -9 40 -20 0 -11 -14 -20 -31 -20 -16 0 -36 -14 -42 -31 -7 -18
-25 -26 -42 -20 -17 7 -47 -3 -67 -21 -43 -39 -357 -93 -744 -127 -9 0 -11
-10 -4 -21 7 -11 32 -16 56 -10 49 11 267 32 314 30 96 -5 149 1 167 19 12 12
56 21 98 21 43 0 124 22 181 49 57 26 137 54 178 62 57 10 96 38 162 116 206
242 172 279 -147 161 -170 -63 -379 -101 -639 -117 -115 -7 -245 -18 -287 -24
-72 -10 -76 -8 -64 31 16 51 -28 162 -64 162 -14 0 -25 17 -25 39 0 21 -14 52
-31 69 -31 32 2 112 98 237 33 43 333 77 333 38 0 -13 14 -23 30 -23 35 0 -21
131 -75 176 -37 31 -229 46 -314 25z"/>
<path d="M4380 4526 c-16 -5 -56 -40 -87 -78 -35 -42 -45 -64 -25 -56 21 8 32
1 32 -20 0 -18 -9 -32 -20 -32 -11 0 -20 -13 -20 -30 0 -16 -15 -30 -32 -30
-26 0 -30 -13 -20 -62 6 -35 12 -71 12 -80 0 -10 16 -18 37 -18 28 0 34 12 28
55 -27 191 217 299 295 130 36 -77 55 -82 71 -17 41 164 -104 291 -271 238z
m170 -46 c-7 -11 -48 -26 -92 -33 -43 -7 -84 -20 -90 -30 -16 -26 -48 -20 -48
9 0 14 11 37 24 50 29 29 224 33 206 4z"/>
<path d="M3120 4042 c-16 -9 -83 -24 -148 -31 -196 -24 -344 -241 -400 -587
-16 -99 -47 -215 -68 -257 -21 -43 -49 -110 -62 -150 -40 -122 -263 -277 -399
-277 -52 0 -124 38 -221 116 -96 78 -65 432 46 519 38 29 41 41 20 61 -53 49
-116 20 -66 -30 12 -12 16 -32 9 -44 -20 -33 -91 -26 -91 8 0 41 -26 38 -54
-8 -27 -43 -16 -62 39 -62 28 0 36 -9 27 -32 -7 -17 -12 -35 -12 -40 0 -5 -19
1 -42 13 -26 14 -49 16 -61 4 -25 -25 0 -85 35 -85 34 0 37 -32 5 -52 -15 -9
-12 -19 10 -32 55 -31 41 -88 -22 -87 -46 1 -55 -8 -55 -49 0 -40 11 -51 55
-56 57 -7 79 -64 24 -64 -24 0 -26 -8 -9 -40 15 -27 42 -40 87 -40 36 0 74 -9
84 -19 11 -11 51 -22 89 -24 85 -6 171 -89 137 -131 -17 -20 -12 -26 21 -26
23 0 42 -8 42 -17 0 -20 -90 -63 -133 -63 -66 0 -9 -51 69 -61 88 -12 104 1
104 91 0 78 22 110 73 110 39 0 47 -8 38 -37 -19 -61 8 -103 69 -103 87 0 109
44 50 100 -65 61 -63 100 10 170 33 32 60 72 59 89 0 20 -23 5 -65 -42 -72
-82 -166 -134 -220 -122 -49 11 -33 49 35 82 130 64 431 535 431 677 0 39 93
293 150 409 34 70 106 124 170 126 66 3 173 54 173 81 0 17 0 30 -1 29 -1 0
-15 -8 -32 -17z"/>
<path d="M3275 3924 c-49 -4 -75 -16 -75 -35 0 -37 80 -38 131 -1 49 36 38 44
-56 36z"/>
<path d="M2948 3861 c-71 -52 -87 -79 -138 -245 -32 -102 -68 -220 -82 -261
l-24 -74 78 54 c43 30 73 66 69 79 -5 13 18 47 51 75 65 54 62 83 -14 112 -61
23 -44 72 32 89 68 15 125 70 72 70 -51 0 -38 32 43 97 103 84 26 88 -87 4z"/>
<path d="M3434 3826 c-68 -98 -68 -106 7 -106 141 0 252 86 144 113 -30 7 -64
26 -76 42 -17 23 -31 14 -75 -49z"/>
<path d="M4730 3819 c-44 -21 -69 -38 -55 -38 35 -1 31 -41 -4 -41 -16 0 -36
-12 -45 -26 -9 -14 -56 -38 -106 -53 -49 -16 -99 -33 -110 -39 -11 -6 -35 -8
-54 -5 -19 3 -54 -5 -77 -18 -95 -50 -584 5 -548 62 6 11 -3 19 -20 19 -17 0
-29 -7 -27 -15 3 -8 -6 -34 -19 -58 -22 -38 -18 -43 38 -55 134 -26 639 -13
744 20 234 74 393 174 393 249 0 47 -7 47 -110 -2z"/>
<path d="M5071 3827 c-112 -41 -211 -121 -211 -172 0 -23 -14 -94 -32 -157
-30 -106 -30 -120 0 -180 18 -35 32 -88 32 -116 0 -29 8 -79 17 -112 9 -33 11
-78 3 -100 -8 -22 -8 -49 2 -61 9 -11 0 -101 -21 -199 -20 -97 -34 -187 -30
-199 15 -45 -209 -371 -255 -371 -12 0 -37 -13 -54 -29 -18 -15 -57 -51 -87
-79 -52 -47 -115 -52 -115 -9 0 10 54 71 120 135 66 65 120 124 120 131 0 7
26 47 59 87 177 222 190 594 32 890 -28 53 -51 109 -51 125 0 36 -28 37 -58 2
-17 -21 -3 -66 60 -195 116 -238 125 -566 19 -718 -19 -27 -40 -74 -48 -104
-7 -29 -41 -79 -75 -110 -34 -31 -91 -84 -125 -118 -35 -34 -90 -69 -123 -76
-33 -8 -76 -19 -95 -24 -25 -8 -35 1 -35 28 0 52 43 85 93 72 44 -12 147 89
147 144 0 15 8 28 18 28 9 0 29 29 43 65 15 36 50 96 78 134 76 102 72 409 -7
554 -73 131 -109 177 -126 159 -8 -8 -6 -20 5 -28 90 -64 163 -456 107 -578
-21 -46 -38 -96 -38 -111 0 -45 -223 -295 -264 -295 -20 0 -44 -19 -53 -42
-15 -42 -16 -41 -49 9 -43 66 -43 73 7 73 23 0 36 9 29 20 -7 11 8 28 34 38
131 51 286 497 192 555 -13 8 -16 4 -9 -9 16 -25 -42 -304 -69 -333 -10 -10
-18 -35 -18 -54 0 -112 -243 -216 -511 -219 -110 -1 -221 -9 -249 -19 -33 -11
-15 -13 54 -5 96 10 103 8 93 -29 -6 -22 -1 -47 12 -54 14 -9 6 -27 -24 -53
l-45 -39 50 5 c43 5 50 16 50 81 0 72 18 89 80 75 11 -2 43 -4 70 -4 77 -1
125 -34 114 -78 -8 -28 6 -47 48 -69 32 -16 58 -39 58 -50 0 -10 7 -17 15 -14
18 6 23 -26 10 -61 -5 -14 6 -43 24 -63 83 -91 -79 -272 -207 -232 -26 9 -40
0 -48 -30 -17 -66 -106 -46 -97 21 4 28 16 61 27 75 14 17 14 25 0 25 -11 0
-35 5 -52 12 -20 8 -32 2 -32 -17 0 -114 -151 -229 -325 -248 -83 -9 -84 -8
-40 25 56 41 58 88 5 88 -31 0 -42 18 -52 80 -11 66 -23 83 -66 93 -80 19
-107 47 -79 80 18 22 16 25 -10 15 -64 -24 -6 -149 86 -188 82 -33 82 -103 1
-163 -95 -70 90 -112 260 -59 38 12 95 22 125 22 31 0 55 11 55 26 0 29 177
15 305 -25 100 -31 95 -47 -10 -33 -59 8 -70 6 -35 -5 90 -30 258 -169 270
-224 35 -160 -168 -313 -346 -261 -58 17 -66 15 -60 -14 5 -22 22 -32 49 -28
28 4 45 -8 53 -35 14 -55 54 -52 55 4 0 41 3 42 26 11 24 -31 34 -31 124 -4
133 40 153 59 204 193 42 111 34 163 -11 70 l-21 -45 -2 46 c-1 61 -28 108
-144 258 -60 77 -83 120 -62 113 19 -6 4 10 -35 36 l-70 46 58 7 c32 4 92 29
135 56 42 26 94 48 117 48 22 0 40 10 40 23 0 15 27 18 85 8 47 -8 195 -16
328 -18 290 -4 352 -32 363 -162 6 -67 -3 -84 -89 -163 l-96 -88 80 7 c100 9
148 38 208 129 128 196 54 337 -219 421 -82 25 -166 54 -186 65 -20 11 -44 14
-55 7 -10 -6 -29 -5 -42 3 -24 15 15 52 148 139 41 27 75 63 75 79 0 22 -15
17 -55 -18 -57 -51 -285 -178 -285 -159 0 16 122 127 140 127 8 0 54 52 102
115 48 63 107 136 131 161 24 26 50 84 57 130 7 46 22 115 34 152 33 107 63
322 58 422 -1 28 2 91 7 140 5 50 0 123 -11 163 -33 130 70 275 197 276 44 1
65 11 65 31 0 33 -69 110 -98 110 -10 0 -31 3 -45 8 -15 4 -63 -6 -106 -21z"/>
<path d="M1870 3797 c-163 -86 -352 -218 -340 -237 7 -11 0 -15 -14 -9 -15 5
-76 -34 -137 -88 -347 -309 -859 -330 -875 -34 -4 68 4 126 18 143 45 55 1 51
-62 -6 -132 -118 -98 -339 67 -431 100 -56 237 -87 276 -63 14 9 63 13 109 10
48 -3 111 9 146 27 l62 32 0 -79 c0 -44 -9 -85 -20 -92 -12 -7 -16 -20 -11
-29 17 -27 -198 -181 -323 -233 -286 -117 -517 5 -405 213 35 66 3 43 -50 -36
-243 -357 359 -532 708 -206 89 83 121 72 121 -41 0 -55 89 -224 195 -374 98
-138 518 -523 588 -540 15 -4 68 -33 119 -65 95 -61 129 -73 108 -39 -20 32
33 23 58 -10 12 -16 103 -49 202 -73 232 -55 262 -70 365 -172 47 -47 93 -85
101 -85 62 0 105 -318 61 -456 -20 -63 -54 -176 -77 -252 -94 -311 -188 -392
-455 -389 -140 1 -193 -7 -265 -41 -87 -41 -88 -42 -20 -30 39 7 183 14 320
16 232 2 256 6 337 55 83 50 89 51 150 20 43 -23 114 -33 223 -33 134 0 170
-7 223 -45 67 -47 117 -57 136 -27 19 30 -89 102 -157 104 -34 1 -84 8 -112
16 -27 8 -80 8 -117 0 -222 -49 -278 238 -122 632 9 22 31 91 50 154 19 63 51
130 71 148 55 50 47 95 -44 251 -56 96 -78 154 -70 185 6 25 -1 62 -15 82 -38
51 -80 19 -66 -51 8 -39 2 -59 -19 -67 -48 -19 -224 -14 -237 6 -18 29 44 66
88 52 45 -14 56 25 22 87 -33 62 3 87 96 66 67 -15 83 -13 83 9 0 15 -11 28
-25 28 -42 0 -75 74 -63 137 16 78 -36 107 -180 101 -82 -4 -121 5 -167 39
-72 51 -85 53 -85 14 0 -16 -18 -42 -41 -57 -60 -42 9 -56 195 -40 155 13 206
-6 206 -76 0 -43 -31 -51 -48 -13 -7 14 -9 -13 -4 -60 l8 -85 -103 -2 c-57 -2
-88 -7 -70 -11 35 -10 88 -114 71 -141 -24 -39 -204 -18 -204 24 0 26 15 42
45 46 57 9 58 36 2 51 -39 10 -40 15 -15 46 24 30 24 32 -2 17 -16 -10 -70
-18 -120 -19 -64 -1 -88 -9 -84 -28 3 -15 -6 -23 -20 -18 -14 5 -26 26 -26 46
0 28 -19 42 -70 51 -97 17 -180 53 -180 78 0 11 -18 20 -40 20 -22 0 -40 -9
-40 -20 0 -22 -98 -27 -148 -8 -54 21 -36 40 39 42 111 3 191 90 108 116 -58
19 -139 -5 -139 -40 0 -30 -23 -38 -80 -31 -47 7 -158 123 -146 153 15 40 34
35 56 -15 27 -60 83 -92 110 -65 30 30 5 81 -46 98 -37 12 -29 18 51 43 52 16
95 37 95 46 0 45 -136 42 -195 -4 -18 -15 -25 -9 -25 21 0 23 10 48 21 55 12
7 17 25 11 40 -8 21 4 25 49 16 72 -15 84 38 17 74 -34 18 -50 15 -88 -21 -37
-35 -54 -39 -83 -23 -35 21 -35 22 -1 22 20 1 31 10 24 21 -7 11 -29 20 -49
20 -30 0 -61 36 -61 71 0 5 41 3 90 -4 50 -7 90 -6 90 2 0 40 -110 150 -161
161 -33 7 -59 23 -59 34 0 13 -10 12 -28 -3 -19 -15 -33 -16 -41 -3 -7 11 -25
15 -42 9 -16 -6 -29 -1 -29 12 0 13 9 18 20 11 12 -7 21 18 22 64 2 144 78
283 103 189 14 -54 95 -98 95 -52 0 49 -66 121 -103 113 -20 -4 -39 10 -47 35
-7 23 -21 36 -31 30 -11 -6 -19 14 -19 45 0 62 49 146 84 146 12 0 7 -16 -11
-37 -54 -59 -43 -115 22 -112 46 3 54 11 49 51 -4 26 -8 75 -10 108 -2 33 -13
66 -24 74 -11 8 10 21 48 28 41 9 71 28 77 51 10 37 76 52 88 20 4 -10 27 -24
51 -31 45 -14 101 48 77 86 -6 10 3 29 19 42 20 17 24 33 11 48 -36 45 10 83
68 56 72 -33 132 5 127 81 -3 30 -5 55 -6 55 0 0 -36 -19 -80 -43z m-1397
-466 c15 -41 198 -123 310 -139 87 -13 164 5 344 78 31 13 35 7 30 -42 -7 -56
-12 -59 -158 -79 -82 -12 -160 -28 -173 -35 -78 -49 -406 129 -406 220 0 35
39 33 53 -3z m614 -522 c-51 -184 -567 -351 -700 -226 -83 78 -66 113 31 65
38 -19 96 -29 144 -24 59 5 76 1 69 -19 -8 -21 1 -20 44 3 30 16 105 51 165
78 61 27 140 78 177 113 73 68 87 70 70 10z m1002 -1052 c11 -10 -2 -17 -32
-17 -82 0 -177 23 -167 41 12 19 173 0 199 -24z m906 -293 c6 -16 -17 -24 -62
-24 -39 0 -76 -9 -82 -19 -17 -26 -71 -3 -71 30 0 17 31 29 85 34 108 10 121
8 130 -21z m118 -220 c0 -54 -2 -55 -91 -45 -120 14 -127 66 -12 83 44 7 85
14 92 15 6 2 11 -22 11 -53z"/>
<path d="M3149 3779 c-7 -12 -8 -27 -2 -33 17 -17 113 12 113 34 0 27 -94 25
-111 -1z"/>
<path d="M4480 3741 c-17 -9 -74 -22 -127 -30 -53 -8 -92 -19 -86 -25 14 -14
198 13 233 34 37 23 19 42 -20 21z"/>
<path d="M2013 3695 c-23 -85 -16 -112 28 -101 68 18 107 90 66 121 -51 37
-81 31 -94 -20z"/>
<path d="M3400 3660 c-42 -14 -37 -16 36 -18 53 -1 82 6 74 18 -14 23 -39 23
-110 0z"/>
<path d="M3944 3656 c50 -13 85 -13 110 2 28 16 12 20 -74 19 -110 -1 -110 -1
-36 -21z"/>
<path d="M1833 3607 c-39 -40 -12 -108 37 -95 44 11 54 4 73 -52 l23 -65 26
47 c36 65 34 78 -9 78 -20 0 -47 23 -59 50 -22 48 -63 65 -91 37z"/>
<path d="M3088 3525 c-6 -19 -19 -51 -30 -70 -27 -52 3 -42 77 25 78 72 80 80
14 80 -30 0 -55 -14 -61 -35z"/>
<path d="M3312 3498 c-18 -35 -32 -67 -32 -70 0 -19 136 39 169 72 l40 40 -43
0 c-23 0 -56 5 -72 11 -20 8 -41 -10 -62 -53z"/>
<path d="M4388 3477 c-128 -94 -725 -125 -758 -40 -7 18 -3 35 9 39 32 11 4
44 -38 44 -20 0 -51 -23 -70 -51 -18 -28 -57 -60 -85 -71 l-53 -20 43 -30 c37
-25 40 -36 19 -70 -21 -34 -19 -43 10 -60 19 -11 35 -38 35 -60 0 -33 8 -38
45 -26 25 8 122 12 215 9 190 -7 210 -7 345 11 85 11 260 150 228 181 -13 13
-184 -63 -206 -92 -26 -33 -40 -36 -330 -49 -172 -8 -197 -5 -228 29 -34 38
-33 39 38 39 40 0 73 9 73 20 0 11 -26 20 -58 20 -33 0 -63 13 -69 30 -12 30
64 35 610 39 51 1 100 8 108 16 9 8 35 15 59 15 24 0 79 31 122 69 96 85 49
91 -64 8z"/>
<path d="M1524 3378 c-20 -32 -21 -48 -3 -70 39 -46 59 -32 59 42 0 80 -19 89
-56 28z"/>
<path d="M1956 3369 c-97 -97 226 -318 334 -229 58 48 35 80 -58 80 -67 0 -95
10 -120 45 l-34 45 8 -55 c6 -36 -1 -55 -18 -55 -32 0 -68 62 -68 118 0 40
-26 70 -44 51z"/>
<path d="M2866 3279 c-191 -95 -294 -310 -245 -513 14 -59 34 -113 44 -119 9
-6 26 -33 36 -59 10 -26 32 -48 49 -48 16 0 30 -9 30 -20 0 -11 18 -20 40 -20
23 0 40 -13 40 -31 0 -21 12 -28 35 -22 19 6 67 0 105 -14 75 -26 149 -5 200
57 15 18 42 25 70 18 114 -28 252 241 221 428 -47 276 -385 461 -625 343z"/>
<path d="M1494 3146 c-13 -70 0 -100 48 -112 61 -16 88 54 44 116 -47 64 -79
63 -92 -4z"/>
<path d="M5251 3095 c-48 -43 -85 -151 -120 -355 -10 -57 -9 -63 10 -34 12 20
25 65 28 101 20 216 183 305 330 181 71 -60 92 -53 73 22 -29 115 -227 168
-321 85z"/>
<path d="M4240 3118 c0 -44 70 -144 76 -111 4 21 -11 57 -34 80 -23 23 -42 37
-42 31z"/>
<path d="M3975 3080 c-35 -73 -191 -140 -300 -128 -83 10 -115 7 -115 -11 0
-13 7 -19 15 -15 8 5 68 2 133 -7 130 -18 260 26 381 129 l59 50 -84 -3 c-46
-2 -86 -8 -89 -15z"/>
<path d="M5314 2934 c-18 -13 -42 -69 -54 -124 -80 -378 -226 -634 -433 -762
-85 -52 -82 -61 6 -23 114 50 407 436 407 538 0 11 18 44 40 72 22 28 40 75
40 105 0 30 14 67 31 81 86 71 50 179 -37 113z"/>
<path d="M1340 2859 c0 -38 50 -76 71 -54 16 16 -12 71 -43 83 -18 7 -28 -3
-28 -29z"/>
<path d="M1500 2824 c0 -64 48 -110 99 -94 33 10 39 20 23 36 -12 12 -22 38
-22 58 0 25 -15 36 -50 36 -35 0 -50 -11 -50 -36z"/>
<path d="M3845 2846 c-25 -5 -45 -22 -45 -37 0 -17 -19 -29 -45 -29 -25 0 -58
-9 -75 -20 -63 -41 98 -20 169 22 63 37 97 83 56 75 -8 -1 -35 -6 -60 -11z"/>
<path d="M3668 2680 c-44 -17 -81 -80 -48 -80 37 0 118 46 128 73 12 30 -17
33 -80 7z"/>
<path d="M1681 2652 c-33 -41 4 -57 92 -40 68 13 71 16 36 41 -47 35 -98 34
-128 -1z"/>
<path d="M1890 2620 c-27 -43 27 -97 84 -82 73 19 81 57 16 82 -66 25 -84 25
-100 0z"/>
<path d="M1803 2511 l-67 -24 61 -26 c69 -29 103 -16 103 40 0 44 -3 44 -97
10z"/>
<path d="M2572 2509 c-7 -19 -5 -44 5 -57 10 -12 11 -40 2 -62 -48 -119 26
-160 134 -74 81 65 84 97 12 128 -30 13 -74 40 -97 61 -40 34 -44 35 -56 4z"/>
<path d="M3473 2490 c-7 -16 -28 -30 -47 -30 -20 0 -75 -23 -123 -50 -48 -28
-113 -50 -145 -50 -38 0 -58 -10 -58 -30 0 -42 16 -39 189 40 84 39 167 70
183 70 16 0 49 18 73 40 l43 40 -52 0 c-28 0 -57 -13 -63 -30z"/>
<path d="M1073 2385 c-166 -298 -486 -389 -545 -156 -14 57 -28 63 -64 27 -31
-31 -32 -103 -1 -84 14 8 41 -7 65 -36 129 -157 537 40 599 289 19 78 7 69
-54 -40z"/>
<path d="M2264 2349 c-19 -22 -76 -29 -230 -30 -188 0 -201 -3 -164 -31 30
-23 66 -28 145 -18 78 10 115 5 149 -19 76 -53 130 -40 158 38 16 42 41 72 67
77 22 5 10 9 -29 11 -39 1 -82 -12 -96 -28z"/>
<path d="M1123 2259 c-47 -54 -100 -99 -117 -99 -18 0 -62 -35 -98 -77 -115
-134 -371 -133 -440 1 -36 69 -60 64 -27 -6 87 -189 455 -183 584 10 25 38 80
110 123 161 43 50 74 96 69 101 -5 4 -47 -36 -94 -91z"/>
<path d="M2854 2320 c6 -22 2 -40 -9 -40 -11 0 -25 -22 -30 -50 -7 -37 -1 -50
25 -50 41 0 86 91 69 142 -16 52 -68 50 -55 -2z"/>
<path d="M3207 2264 c-7 -24 -27 -44 -45 -44 -18 0 -49 -18 -68 -40 -47 -56
-43 -68 10 -31 25 17 63 31 85 32 81 1 117 48 70 90 -40 36 -41 36 -52 -7z"/>
<path d="M2400 2264 c0 -31 49 -64 94 -64 53 0 57 12 17 51 -30 31 -111 40
-111 13z"/>
<path d="M2634 2181 c-62 -66 -45 -91 46 -71 67 15 69 21 34 85 l-25 44 -55
-58z"/>
<path d="M1908 2151 c97 -88 142 -94 123 -16 -17 67 -4 58 -111 74 l-90 13 78
-71z"/>
<path d="M3400 2190 c20 -24 20 -36 0 -60 -39 -47 -17 -50 60 -9 39 21 55 38
37 38 -17 1 -43 15 -57 31 -14 17 -34 30 -45 30 -11 0 -9 -13 5 -30z"/>
<path d="M2140 2146 c17 -6 45 -24 63 -40 42 -37 147 -27 147 14 0 23 -28 31
-120 34 -66 2 -106 -1 -90 -8z"/>
<path d="M3183 2072 l-41 -59 44 -45 c33 -35 50 -40 70 -23 23 19 20 26 -14
38 -57 21 -53 44 17 103 57 48 57 50 12 47 -26 -2 -64 -28 -88 -61z"/>
<path d="M2911 2101 c-7 -10 0 -26 14 -35 14 -9 37 -38 49 -66 17 -37 24 -41
25 -15 0 19 16 35 34 35 28 0 26 9 -13 50 -49 52 -89 64 -109 31z"/>
<path d="M2040 2026 c-59 -27 -64 -34 -30 -41 22 -5 50 -18 63 -28 36 -29 191
2 161 32 -71 71 -107 77 -194 37z"/>
<path d="M3460 1973 c0 -60 77 -104 110 -61 37 49 37 61 -2 76 -54 21 -108 13
-108 -15z"/>
<path d="M3844 1986 c18 -4 42 -33 52 -62 l19 -54 20 50 c23 58 2 80 -75 77
-31 -1 -37 -5 -16 -11z"/>
<path d="M3337 1945 c9 -19 14 -46 9 -60 -13 -35 24 -31 54 5 20 24 20 36 0
60 -36 44 -86 40 -63 -5z"/>
<path d="M2555 1932 c-48 -36 -45 -45 29 -70 77 -27 109 -4 77 56 -26 48 -56
52 -106 14z"/>
<path d="M3708 1934 c24 -17 34 -41 26 -61 -14 -37 2 -42 46 -13 41 26 2 88
-62 97 -46 6 -46 5 -10 -23z"/>
<path d="M2350 1910 c-11 -4 -54 -12 -96 -19 -107 -18 -71 -51 56 -51 88 0
113 8 130 40 21 39 -21 53 -90 30z"/>
<path d="M3510 1780 c-65 -51 -70 -61 -37 -71 20 -7 54 -21 74 -32 26 -14 33
-14 24 2 -8 12 5 45 27 74 77 97 22 114 -88 27z"/>
<path d="M1021 1669 c-50 -27 -122 -84 -162 -127 l-71 -79 81 -8 c58 -7 107 4
171 36 173 88 228 96 330 51 60 -26 113 -36 151 -29 47 10 87 -4 184 -65 168
-104 457 -248 498 -248 17 0 43 -13 55 -28 22 -26 194 -117 264 -138 52 -17
99 84 78 167 -36 145 -44 159 -88 159 -24 0 -64 15 -90 33 -49 34 -50 8 -8
-141 9 -31 4 -35 -27 -22 -20 8 -82 33 -137 54 -55 21 -208 92 -341 157 -132
66 -251 119 -265 119 -13 0 -74 28 -135 62 -61 35 -116 57 -123 50 -7 -6 -2
-12 11 -12 13 0 23 -8 23 -17 0 -10 -61 -13 -135 -8 -132 9 -138 8 -222 -63
-128 -106 -175 -91 -53 18 100 89 130 99 280 95 76 -2 77 -1 20 14 -109 29
-198 20 -289 -30z"/>
<path d="M3094 1688 c-6 -7 -6 -25 0 -40 6 -16 -1 -42 -15 -59 -13 -16 -19
-36 -12 -42 22 -22 73 37 73 84 0 47 -25 78 -46 57z"/>
<path d="M819 1629 c-14 -17 -58 -46 -97 -63 -57 -25 -64 -34 -34 -41 24 -6
63 16 109 63 40 40 67 72 60 72 -7 0 -24 -14 -38 -31z"/>
<path d="M3400 1610 c0 -37 11 -50 40 -50 49 0 55 70 8 88 -46 18 -48 16 -48
-38z"/>
<path d="M4635 1603 c25 -22 45 -51 45 -65 0 -14 -25 -1 -56 28 -31 30 -63 54
-72 54 -8 0 12 -23 45 -51 33 -28 63 -70 67 -95 4 -30 17 -42 43 -38 33 6 36
-2 24 -67 -10 -54 -7 -69 10 -58 61 37 -18 267 -106 309 l-45 22 45 -39z"/>
<path d="M4483 1567 c41 -88 66 -126 88 -135 40 -15 -17 108 -61 133 -19 11
-31 12 -27 2z"/>
<path d="M4121 1507 c27 -18 75 -57 107 -85 l58 -52 -36 56 c-20 31 -61 69
-92 85 -76 39 -98 37 -37 -4z"/>
<path d="M1496 1383 c5 -54 18 -83 36 -83 38 0 35 -39 -5 -83 -39 -43 -17 -47
59 -12 73 34 68 74 -22 175 l-76 86 8 -83z"/>
<path d="M4578 1380 c-11 -115 -20 -150 -49 -194 -18 -27 -59 -65 -91 -83 -32
-18 -58 -40 -58 -48 0 -24 70 -17 96 9 19 19 24 19 24 0 0 -36 147 44 197 107
40 50 40 52 3 95 -20 24 -55 67 -78 94 -29 36 -42 41 -44 20z"/>
<path d="M2140 400 c-75 -41 -57 -53 29 -20 54 20 187 -17 251 -71 17 -14 48
-30 70 -35 56 -13 -83 4 -180 22 -105 19 -374 -43 -285 -66 31 -8 76 -10 100
-4 25 6 80 20 124 31 53 14 91 14 117 0 49 -27 174 -37 174 -14 0 9 29 18 65
19 l65 2 -60 16 c-86 22 -284 114 -299 139 -20 32 -93 24 -171 -19z"/>
</g>
</svg>
